<svg width="571" height="128" viewBox="0 0 571 128" fill="none" xmlns="http://www.w3.org/2000/svg">
<g filter="url(#filter0_d_5_75)">
<path d="M70.9219 118H4.90625V112.727H20.5312V6.08594H4.90625V0.8125H102.562L103.344 39.2891H97.6797L93.3828 24.8359C93.3828 24.7057 93.3177 24.5755 93.1875 24.4453C89.4115 12.2057 81.6641 6.08594 69.9453 6.08594H47.875V54.7188H85.375V60.5781H47.875V112.727H70.9219V118ZM158.812 112.922C159.594 112.922 160.31 112.987 160.961 113.117C162.654 113.378 163.5 115.005 163.5 118H108.227V112.922C109.919 112.922 111.417 112.792 112.719 112.531C117.276 111.75 119.555 108.495 119.555 102.766V39.0938H108.227V34.0156H142.406L143.773 52.1797C145.206 48.5339 147.289 45.1484 150.023 42.0234C156.143 35.6432 163.24 32.4531 171.312 32.4531C173.005 32.4531 174.633 32.6484 176.195 33.0391C182.576 34.7318 185.766 38.8333 185.766 45.3438C185.766 47.1667 185.375 48.9245 184.594 50.6172C182.38 55.5651 178.669 58.0391 173.461 58.0391C171.898 58.0391 170.466 57.8438 169.164 57.4531C166.43 56.4115 163.891 53.8073 161.547 49.6406C159.854 46.6458 158.292 45.1484 156.859 45.1484C156.078 45.1484 155.232 45.3438 154.32 45.7344C148.591 48.7292 145.271 57.0625 144.359 70.7344V112.922H158.812ZM262.523 119.953C252.107 119.302 245.531 113.378 242.797 102.18C242.146 104.003 241.299 105.76 240.258 107.453C235.049 115.786 226.911 119.953 215.844 119.953C212.198 119.953 208.878 119.497 205.883 118.586C195.727 115.331 190.648 107.909 190.648 96.3203C190.779 79.263 207.576 70.4089 241.039 69.7578V57.0625C241.039 53.2865 240.779 50.0312 240.258 47.2969C238.956 39.875 235.245 36.1641 229.125 36.1641C227.302 36.1641 225.674 36.4896 224.242 37.1406C222.029 38.4427 220.206 41.6979 218.773 46.9062C218.253 48.7292 217.862 50.0312 217.602 50.8125C215.648 56.2812 211.872 59.0156 206.273 59.0156C204.971 59.0156 203.734 58.8203 202.562 58.4297C197.745 57.1276 195.336 53.9375 195.336 48.8594C195.336 46.6458 195.922 44.5625 197.094 42.6094C201.651 34.9271 212.784 31.0859 230.492 31.0859C235.049 31.0859 239.281 31.5417 243.188 32.4531C258.292 36.2292 265.844 46.2552 265.844 62.5312V103.352C265.844 109.602 267.276 112.857 270.141 113.117C273.917 112.987 276.195 108.43 276.977 99.4453L282.055 99.6406C281.664 103.677 281.078 106.997 280.297 109.602C277.953 116.503 272.029 119.953 262.523 119.953ZM226 111.555C226.911 111.555 227.953 111.359 229.125 110.969C234.594 108.885 238.565 103.286 241.039 94.1719V75.2266C235.18 75.487 230.362 76.2031 226.586 77.375C219.555 79.9792 216.039 85.5781 216.039 94.1719C216.169 105.5 219.49 111.294 226 111.555ZM326.586 112.922C327.367 112.922 328.083 112.987 328.734 113.117C330.427 113.378 331.273 115.005 331.273 118H286.938V112.922C287.979 112.922 288.956 112.857 289.867 112.727C295.466 112.076 298.266 108.755 298.266 102.766V39.0938H286.938V34.0156H321.703L322.68 48.2734C328.409 36.9453 337.523 31.2161 350.023 31.0859C352.107 31.0859 354.19 31.3464 356.273 31.8672C364.216 34.2109 369.75 40.0052 372.875 49.25C379.125 37.2708 388.565 31.2161 401.195 31.0859C405.753 31.0859 409.984 32.3229 413.891 34.7969C422.354 40.1354 426.586 49.1849 426.586 61.9453V112.922H433.031C433.812 112.922 434.594 112.987 435.375 113.117C437.068 113.378 437.914 115.005 437.914 118H393.383V112.922C395.466 112.922 397.094 112.727 398.266 112.336C400.74 111.294 401.977 108.104 401.977 102.766V59.6016C401.977 56.3464 401.586 53.3516 400.805 50.6172C398.721 43.9766 394.88 40.6562 389.281 40.6562C387.979 40.6562 386.677 40.9167 385.375 41.4375C379.255 44.0417 375.74 50.7474 374.828 61.5547V62.9219V112.922H378.148C378.93 112.922 379.711 112.987 380.492 113.117C382.185 113.378 383.031 115.005 383.031 118H341.625V112.922C343.708 112.922 345.336 112.727 346.508 112.336C348.982 111.294 350.219 108.104 350.219 102.766V59.6016C350.219 56.0859 349.763 52.8958 348.852 50.0312C346.768 44.0417 343.318 41.0469 338.5 41.0469C336.807 41.0469 335.115 41.5026 333.422 42.4141C327.432 45.5391 324.047 52.2448 323.266 62.5312L323.07 112.922H326.586ZM490.453 36.1641C480.036 36.5547 474.372 47.5573 473.461 69.1719L485.961 69.7578C491.169 70.0182 495.076 69.6927 497.68 68.7812C501.326 67.349 503.148 63.5729 503.148 57.4531C503.018 43.5208 498.786 36.4245 490.453 36.1641ZM526.977 97.8828C526.195 99.9661 525.154 101.984 523.852 103.938C517.211 114.615 506.273 119.953 491.039 119.953C482.445 119.953 474.763 118.195 467.992 114.68C453.799 107.258 446.703 94.1068 446.703 75.2266C446.703 63.638 449.828 53.9375 456.078 46.125C464.281 36.099 475.74 31.0859 490.453 31.0859C498.526 31.0859 505.753 32.4531 512.133 35.1875C523.461 40.2656 529.125 48.3385 529.125 59.4062C529.125 61.6198 528.734 63.638 527.953 65.4609C524.568 72.7526 512.393 76.0729 491.43 75.4219L473.461 74.8359C473.591 82.388 474.242 88.8984 475.414 94.3672C478.409 107.648 485.115 114.289 495.531 114.289C498.786 114.289 501.977 113.703 505.102 112.531C512.914 109.667 518.643 104.263 522.289 96.3203L526.977 97.8828Z" fill="#F7F3F5"/>
<path d="M566.234 105.305C566.234 107.648 565.714 109.862 564.672 111.945C562.068 116.633 557.966 118.977 552.367 118.977C550.154 118.977 548.07 118.456 546.117 117.414C541.169 114.94 538.695 110.904 538.695 105.305C538.695 103.091 539.216 100.943 540.258 98.8594C542.862 93.9115 546.898 91.4375 552.367 91.4375C554.581 91.4375 556.729 91.9583 558.812 93C563.76 95.7344 566.234 99.8359 566.234 105.305Z" fill="#DB5F43"/>
</g>
<defs>
<filter id="filter0_d_5_75" x="0.90625" y="0.8125" width="569.328" height="127.141" filterUnits="userSpaceOnUse" color-interpolation-filters="sRGB">
<feFlood flood-opacity="0" result="BackgroundImageFix"/>
<feColorMatrix in="SourceAlpha" type="matrix" values="0 0 0 0 0 0 0 0 0 0 0 0 0 0 0 0 0 0 127 0" result="hardAlpha"/>
<feOffset dy="4"/>
<feGaussianBlur stdDeviation="2"/>
<feComposite in2="hardAlpha" operator="out"/>
<feColorMatrix type="matrix" values="0 0 0 0 0 0 0 0 0 0 0 0 0 0 0 0 0 0 0.25 0"/>
<feBlend mode="normal" in2="BackgroundImageFix" result="effect1_dropShadow_5_75"/>
<feBlend mode="normal" in="SourceGraphic" in2="effect1_dropShadow_5_75" result="shape"/>
</filter>
</defs>
</svg>
